<svg width="97" height="10" viewBox="0 0 97 10" fill="none" xmlns="http://www.w3.org/2000/svg">
<path d="M96.0323 8.1467C91.8419 8.69985 87.7679 7.40113 83.5775 7.23278C79.4841 7.06443 75.3907 7.47329 71.2973 7.18469C62.8002 6.58344 54.4582 5.14042 45.9222 5.18852C41.8288 5.21257 37.6966 4.92397 33.6226 5.30877C30.1112 5.64547 26.6774 6.87203 23.1466 7.08848C19.7516 7.30494 16.3954 8.02643 13.0198 8.43529C9.31443 8.89224 5.58963 10.0466 1.88424 9.99854C-0.637764 9.95044 -0.618362 4.03411 1.88424 4.25056C8.92642 4.85181 16.085 2.1101 23.1466 1.86959C26.658 1.74934 30.1112 0.450644 33.6226 0.162043C37.6966 -0.174658 41.8482 0.113949 45.9222 0.137999C54.4582 0.162049 62.8002 1.67719 71.2973 2.3506C75.2161 2.66325 79.1543 2.30252 83.0731 2.49492C87.4575 2.71137 91.7061 4.37081 96.0323 5.21256C97.2933 5.42902 97.3515 7.9543 96.0323 8.1467Z" fill="#FF6525"/>
</svg>
