<svg width="220" height="209" viewBox="0 0 220 209" fill="none" xmlns="http://www.w3.org/2000/svg">
<path d="M115.649 19.4503L115.568 19.3685L103.705 4.96991C102.805 3.90638 102.969 2.27018 104.032 1.37027C105.096 0.470359 106.732 0.633974 107.632 1.69751L119.494 16.0961C120.394 17.1596 120.231 18.7958 119.167 19.6957C118.104 20.5957 116.549 20.5138 115.649 19.4503Z" fill="#BCBCBC"/>
<path d="M124.075 6.52433C123.175 5.4608 123.175 3.90641 124.239 2.92469C125.302 1.94297 126.857 2.02478 127.838 3.0065L141.992 17.9778C142.973 19.0413 142.891 20.5957 141.91 21.5774C140.846 22.5591 139.292 22.4773 138.31 21.4956L124.075 6.52433C124.157 6.60614 124.075 6.60614 124.075 6.52433Z" fill="#BCBCBC"/>
<path d="M100.35 29.7588C99.45 28.7771 99.45 27.3045 100.35 26.3228C101.332 25.2593 102.968 25.2593 103.95 26.1592L118.594 39.8215C119.657 40.8032 119.657 42.4394 118.757 43.4211C117.775 44.4847 116.139 44.4847 115.158 43.5847L100.514 29.9224C100.432 29.8406 100.432 29.8406 100.35 29.7588Z" fill="#BCBCBC"/>
<path d="M77.4425 38.5932C76.4608 37.5297 76.5426 35.8934 77.6061 34.9935C78.6697 34.0118 80.224 34.0936 81.2057 35.0754L81.2876 35.1572L91.6774 46.447C92.6592 47.5105 92.5774 49.0649 91.5139 50.0466C90.4503 51.0283 88.8141 50.9465 87.9142 49.883L77.4425 38.5932Z" fill="#BCBCBC"/>
<path d="M58.872 47.5903C57.8903 46.5268 57.9721 44.9724 59.0357 43.9907C60.0992 43.0089 61.7354 43.0907 62.6353 44.1543L68.771 50.6991C69.7528 51.7626 69.671 53.317 68.6075 54.2987C67.5439 55.2805 65.9077 55.1987 65.0078 54.1351L58.872 47.5903Z" fill="#BCBCBC"/>
<path d="M27.6211 49.802C26.7211 48.8203 26.7212 47.1841 27.7029 46.2841C28.6846 45.3024 30.3208 45.3024 31.3025 46.2841L52.5732 67.8002C53.5549 68.7819 53.5549 70.4181 52.5732 71.3999C51.5914 72.3816 49.9553 72.3816 48.9735 71.3999L27.6211 49.802C27.7029 49.8838 27.7029 49.8838 27.6211 49.802Z" fill="#BCBCBC"/>
<path d="M27.7033 80.1528C26.8034 79.171 26.8033 77.6166 27.7851 76.6349C28.7668 75.6532 30.403 75.5714 31.3847 76.5531L45.7015 90.4608C46.6832 91.4426 46.765 93.0788 45.7833 94.0605C44.8016 95.0422 43.1654 95.124 42.1836 94.1423L27.8669 80.2346C27.785 80.2346 27.7033 80.1528 27.7033 80.1528Z" fill="#BCBCBC"/>
<path d="M1.60511 80.3972C0.705202 79.4155 0.705182 77.8611 1.6869 76.8794C2.66863 75.8976 4.30485 75.8976 5.28657 76.8794L23.9393 95.5321C24.921 96.5138 24.921 98.15 23.9393 99.1317C22.9576 100.113 21.3214 100.113 20.3397 99.1317L1.6869 80.479L1.60511 80.3972Z" fill="#BCBCBC"/>
<path d="M141.909 51.931C141.827 51.8492 141.746 51.7674 141.746 51.6856L132.01 38.0233C131.192 36.8779 131.437 35.2417 132.583 34.4236C133.728 33.6055 135.364 33.851 136.182 34.9963L145.918 48.6586C146.736 49.8039 146.491 51.4401 145.345 52.2583C144.282 53.0764 142.809 52.9127 141.909 51.931Z" fill="#BCBCBC"/>
<path d="M154.262 46.7737C153.362 45.7919 153.362 44.2375 154.344 43.2558C155.325 42.2741 156.961 42.2741 157.943 43.2558L165.715 50.946C166.697 51.9277 166.697 53.5639 165.715 54.5456C164.733 55.5274 163.097 55.5274 162.116 54.5456L154.344 46.8555C154.344 46.8555 154.344 46.8555 154.262 46.7737Z" fill="#BCBCBC"/>
<path d="M148.127 78.4341C148.045 78.3523 147.964 78.2705 147.964 78.1887L133.974 58.7996C133.156 57.6543 133.401 56.0181 134.547 55.2C135.692 54.3819 137.328 54.6273 138.146 55.7727L152.136 75.1617C152.954 76.307 152.709 77.9432 151.563 78.7613C150.5 79.5794 149.027 79.4158 148.127 78.4341Z" fill="#BCBCBC"/>
<path d="M127.675 78.8446L127.593 78.7627L116.876 65.9185C115.976 64.855 116.14 63.2188 117.203 62.3189C118.267 61.419 119.985 61.6644 120.803 62.6461L131.52 75.4903C132.42 76.5539 132.256 78.1901 131.193 79.09C130.129 79.9081 128.575 79.8263 127.675 78.8446Z" fill="#BCBCBC"/>
<path d="M98.3857 74.0993C97.4858 73.1176 97.4858 71.5632 98.4675 70.5815C99.4492 69.5998 101.085 69.5998 102.067 70.5815L111.148 79.6624C112.212 80.6442 112.13 82.2804 111.148 83.2621C110.166 84.2438 108.53 84.2438 107.548 83.2621L98.4675 74.1812C98.4675 74.1812 98.3857 74.1812 98.3857 74.0993Z" fill="#BCBCBC"/>
<path d="M86.8524 86.2875L86.7706 86.2057L80.3076 78.1883C79.4077 77.043 79.5713 75.4886 80.7167 74.5887C81.862 73.6888 83.4164 73.8524 84.3163 74.9977L90.7793 83.0151C91.6792 84.1605 91.5156 85.7149 90.3703 86.6148C89.3067 87.4329 87.7523 87.3511 86.8524 86.2875Z" fill="#BCBCBC"/>
<path d="M67.8708 93.162C66.9708 92.1802 66.9708 90.6258 67.8708 89.6441C68.8525 88.5806 70.4887 88.5806 71.4704 89.5623L85.9508 103.306C87.0143 104.288 87.0143 105.924 86.0326 106.906C85.0509 107.97 83.4147 107.97 82.433 106.988L67.9525 93.2438C67.9525 93.2438 67.8708 93.2438 67.8708 93.162Z" fill="#BCBCBC"/>
<path d="M61.8994 111.568L55.0273 103.96C54.0456 102.896 54.1274 101.26 55.191 100.36C56.2545 99.3786 57.8907 99.4604 58.7906 100.524L65.6627 108.132C66.6444 109.196 66.5626 110.832 65.499 111.732C64.5173 112.714 62.8811 112.632 61.8994 111.568Z" fill="#BCBCBC"/>
<path d="M50.5276 128.831C50.5276 128.749 50.4458 128.749 50.4458 128.667L35.5563 110.097C34.6564 108.951 34.82 107.397 35.9654 106.497C37.1107 105.597 38.6651 105.842 39.565 106.906L54.3726 125.559C55.2726 126.704 55.1089 128.258 53.9636 129.158C52.9819 129.976 51.4275 129.813 50.5276 128.831Z" fill="#BCBCBC"/>
<path d="M100.515 104.288C99.6147 103.306 99.6147 101.833 100.515 100.852C101.496 99.788 103.051 99.7062 104.114 100.688L119.004 114.023C120.067 115.005 120.149 116.559 119.249 117.623C118.267 118.686 116.713 118.768 115.65 117.868L100.76 104.533C100.596 104.451 100.515 104.369 100.515 104.288Z" fill="#BCBCBC"/>
<path d="M118.103 97.8231C117.203 96.8414 117.203 95.3688 118.103 94.3871C119.003 93.3235 120.639 93.2417 121.703 94.1416L134.792 105.677C135.856 106.577 135.938 108.213 135.038 109.277C134.138 110.34 132.502 110.422 131.438 109.522L118.349 97.9867C118.267 97.9867 118.185 97.9049 118.103 97.8231Z" fill="#BCBCBC"/>
<path d="M179.296 97.008C179.214 96.9262 179.214 96.9262 179.132 96.8444L161.297 74.0194C160.397 72.874 160.643 71.3196 161.706 70.4197C162.852 69.5198 164.488 69.6834 165.306 70.8288L183.141 93.6538C184.041 94.7992 183.795 96.3536 182.732 97.2535C181.75 98.1534 180.196 97.9898 179.296 97.008Z" fill="#BCBCBC"/>
<path d="M154.754 91.5261C153.854 90.5444 153.854 88.99 154.836 88.0083C155.817 87.0265 157.454 87.0265 158.435 88.0083L167.107 96.5983C168.089 97.5801 168.089 99.2163 167.107 100.198C166.126 101.18 164.489 101.18 163.508 100.198L154.836 91.6079C154.836 91.5261 154.836 91.5261 154.754 91.5261Z" fill="#BCBCBC"/>
<path d="M151.238 111.159C150.338 110.177 150.338 108.541 151.32 107.559C152.301 106.578 153.938 106.578 154.919 107.641L165.636 118.767C166.618 119.749 166.618 121.385 165.555 122.367C164.573 123.349 162.937 123.349 161.955 122.285L151.238 111.159C151.32 111.241 151.238 111.159 151.238 111.159Z" fill="#BCBCBC"/>
<path d="M148.045 149.69L132.092 132.019C131.11 130.955 131.192 129.319 132.255 128.419C133.319 127.438 134.955 127.519 135.855 128.583L151.808 146.254C152.79 147.318 152.708 148.954 151.644 149.854C150.581 150.835 148.944 150.754 148.045 149.69Z" fill="#BCBCBC"/>
<path d="M90.0412 124.168C89.1413 123.105 89.1413 121.55 90.2049 120.569C91.2684 119.587 92.8228 119.669 93.8045 120.651L112.375 140.203C113.357 141.185 113.275 142.821 112.294 143.803C111.23 144.785 109.676 144.703 108.694 143.721L90.0412 124.168C90.0412 124.25 90.0412 124.168 90.0412 124.168Z" fill="#BCBCBC"/>
<path d="M67.7079 141.017C66.808 140.035 66.8081 138.481 67.7898 137.499C68.7715 136.517 70.4077 136.517 71.3894 137.499L81.3702 147.562C82.352 148.543 82.352 150.18 81.3702 151.161C80.3885 152.143 78.7523 152.143 77.7706 151.161L67.7898 141.099C67.7898 141.017 67.7897 141.017 67.7079 141.017Z" fill="#BCBCBC"/>
<path d="M60.8357 168.1C60.8357 168.018 60.8357 168.018 60.8357 168.1L44.31 149.202C43.4101 148.138 43.4919 146.502 44.5554 145.602C45.619 144.702 47.1734 144.866 48.1551 145.847L64.5989 164.746C65.4988 165.809 65.417 167.445 64.3535 168.345C63.3718 169.163 61.7356 169.081 60.8357 168.1Z" fill="#BCBCBC"/>
<path d="M108.696 159.268C107.878 158.368 107.796 156.895 108.614 155.913C109.514 154.85 111.15 154.686 112.214 155.586L125.794 166.712C126.858 167.612 127.021 169.248 126.121 170.312C125.221 171.375 123.585 171.539 122.522 170.639L108.941 159.513C108.941 159.431 108.777 159.349 108.696 159.268Z" fill="#BCBCBC"/>
<path d="M90.3704 163.764C89.4705 162.782 89.4705 161.228 90.4522 160.246C91.434 159.264 93.0702 159.264 94.0519 160.246L102.233 168.427C103.215 169.327 103.215 171.045 102.233 172.027C101.251 173.008 99.615 173.008 98.6333 172.027L90.4522 163.846C90.4522 163.846 90.4523 163.764 90.3704 163.764Z" fill="#BCBCBC"/>
<path d="M148.7 169.897L134.465 154.19C133.483 153.126 133.565 151.49 134.629 150.59C135.692 149.609 137.329 149.69 138.228 150.754L152.463 166.461C153.445 167.525 153.363 169.161 152.3 170.061C151.236 171.043 149.6 170.961 148.7 169.897Z" fill="#BCBCBC"/>
<path d="M163.588 142.493C162.688 141.429 162.688 139.875 163.67 138.893C164.652 137.911 166.288 137.911 167.27 138.975L178.396 150.51C179.296 151.573 179.378 153.128 178.314 154.11C177.332 155.091 175.696 155.091 174.714 154.028L163.588 142.493C163.588 142.574 163.588 142.493 163.588 142.493Z" fill="#BCBCBC"/>
<path d="M182.652 117.378C181.752 116.396 181.752 114.76 182.734 113.86C183.716 112.878 185.352 112.878 186.334 113.86L199.832 127.604C200.896 128.667 200.814 130.222 199.832 131.204C198.851 132.185 197.214 132.185 196.233 131.204L182.652 117.378C182.734 117.378 182.734 117.378 182.652 117.378Z" fill="#BCBCBC"/>
<path d="M197.458 103.959C196.558 102.977 196.558 101.341 197.539 100.359C198.521 99.3775 200.157 99.3775 201.139 100.441L213.247 112.876C214.31 113.858 214.229 115.494 213.165 116.476C212.183 117.457 210.547 117.458 209.565 116.394L197.458 103.959C197.458 104.041 197.458 103.959 197.458 103.959Z" fill="#BCBCBC"/>
<path d="M191.732 152.555C190.833 151.573 190.833 150.101 191.732 149.119C192.714 148.056 194.35 147.974 195.332 148.955L204.904 157.627C205.967 158.609 206.049 160.245 205.067 161.227C204.086 162.291 202.45 162.372 201.468 161.391L191.896 152.719C191.814 152.719 191.732 152.637 191.732 152.555Z" fill="#BCBCBC"/>
<path d="M179.215 177.755L169.316 166.792C168.334 165.728 168.416 164.092 169.479 163.192C170.543 162.211 172.179 162.292 173.079 163.356L182.978 174.319C183.96 175.382 183.878 177.018 182.814 177.918C181.751 178.9 180.197 178.818 179.215 177.755Z" fill="#BCBCBC"/>
<path d="M145.674 188.308C144.693 187.244 144.774 185.608 145.838 184.708C146.901 183.726 148.456 183.808 149.438 184.872L162.036 198.616C163.018 199.679 162.936 201.315 161.873 202.215C160.809 203.197 159.173 203.115 158.273 202.052L145.674 188.308Z" fill="#BCBCBC"/>
<path d="M126.201 191.989C125.301 191.008 125.302 189.453 126.283 188.472C127.265 187.49 128.901 187.49 129.883 188.472L139.946 198.452C141.009 199.352 140.927 201.07 139.946 202.052C138.964 203.034 137.328 203.034 136.346 202.052L126.283 192.071C126.283 192.071 126.201 192.071 126.201 191.989Z" fill="#BCBCBC"/>
<path d="M122.277 207.778L122.195 207.696L108.778 191.17C107.878 190.107 108.042 188.47 109.187 187.571C110.251 186.671 111.887 186.752 112.787 187.98L126.204 204.505C127.103 205.569 126.94 207.205 125.794 208.105C124.731 208.841 123.177 208.759 122.277 207.778Z" fill="#BCBCBC"/>
<path d="M206.704 144.949C205.886 144.049 205.804 142.658 206.54 141.676C207.44 140.531 208.994 140.368 210.14 141.186L218.403 147.567C219.548 148.467 219.712 150.021 218.893 151.166C217.994 152.312 216.439 152.475 215.294 151.657L207.031 145.276C206.949 145.194 206.786 145.113 206.704 144.949Z" fill="#BCBCBC"/>
</svg>
