<svg width="212" height="180" viewBox="0 0 212 180" fill="none" xmlns="http://www.w3.org/2000/svg">
<path d="M93.5339 132.177C94.5149 131.871 95.2269 132.016 94.9579 132.465L95.7388 132.416L95.9324 132.485C96.1948 132.36 96.2637 132.167 96.3326 131.973L96.139 131.904L95.9454 131.835C96.0143 131.642 96.0832 131.448 96.152 131.254L96.2209 131.061L96.69 130.355L96.7654 129.837C97.0213 130.037 97.2838 129.912 97.2215 129.781C97.1591 129.65 97.4281 129.2 97.6282 128.944C97.8283 128.688 98.6781 128.446 98.8093 128.383C98.8782 128.19 99.2719 128.002 99.3408 127.809L99.5408 127.553C99.5408 127.553 100.204 126.916 100.804 126.149L101.654 125.906L101.785 125.843C101.916 125.781 101.985 125.587 102.116 125.525C102.185 125.331 102.585 124.819 102.91 124.826C103.173 124.701 103.835 124.065 104.167 123.746L104.56 123.559L104.692 123.497C104.885 123.566 105.085 123.31 105.285 123.054C105.354 122.86 105.823 122.155 106.023 121.899C106.286 121.774 107.017 120.944 107.48 120.563L108.005 120.314L108.399 120.127C108.668 119.677 109.006 119.034 109.206 118.778C109.343 118.391 110.58 118.286 110.843 118.161L110.912 117.968C110.981 117.774 110.987 117.449 111.056 117.256C111.381 117.262 111.843 116.882 112.175 116.563C112.506 116.245 113.569 115.096 113.763 115.165C113.956 115.234 114.688 114.404 114.888 114.148L115.088 113.892L115.363 113.118C116.013 113.131 116.6 113.013 116.538 112.881L116.476 112.75L116.351 112.488C116.613 112.363 116.945 112.045 117.014 111.851C117.082 111.657 117.745 111.021 117.752 110.696C117.889 110.309 118.926 110.46 118.995 110.266C118.995 110.266 119.527 109.692 119.796 109.242C120.127 108.924 121.059 107.838 120.996 107.707C120.996 107.707 121.459 107.326 121.853 107.139C122.377 106.889 123.44 105.741 123.503 105.872C123.634 105.81 124.097 105.429 124.497 104.917C124.897 104.405 126.278 103.588 126.409 103.526C126.409 103.526 126.61 103.27 126.478 103.332C126.347 103.395 126.16 103.001 126.429 102.551C126.698 102.102 128.066 101.934 128.197 101.872C128.197 101.872 128.598 101.36 128.798 101.104C128.998 100.848 129.854 100.281 129.923 100.087L129.992 99.8934C130.061 99.6998 130.13 99.5062 130.261 99.4438L130.655 99.2568C131.111 99.2009 131.511 98.689 131.649 98.3019L131.849 98.0459L132.18 97.7276C132.705 97.4782 133.423 97.2977 133.817 97.1106C134.273 97.0548 135.211 95.6438 135.48 95.1942C135.881 94.6823 137.711 94.1342 138.299 94.016L138.568 93.5665C138.636 93.3729 138.968 93.0546 139.23 92.9299L139.562 92.6116C140.018 92.5557 140.674 92.2439 140.874 91.988L141.205 91.6697C141.337 91.6073 141.724 91.7451 141.855 91.6827L142.38 91.4333C142.974 90.9903 143.567 90.5473 143.83 90.4226C144.092 90.2979 144.873 90.2486 145.205 89.9303C145.405 89.6743 146.711 89.3756 146.973 89.2509L147.235 89.1262L147.367 89.0638C147.498 89.0014 147.829 88.6831 148.354 88.4337C148.748 88.2466 150.703 87.9609 151.553 87.718C152.403 87.4751 155.29 86.1033 156.209 85.6668L157.177 86.0112C157.564 86.1489 157.826 86.0243 158.095 85.5747C158.42 85.5812 158.745 85.5877 158.876 85.5254C159.007 85.463 159.27 85.3383 159.532 85.2136C159.795 85.0889 160.313 85.1643 160.7 85.3021C161.025 85.3086 162.124 85.5906 162.643 85.666C163.161 85.7414 164.835 86.5549 165.54 87.024L166.446 87.2371C166.377 87.4307 166.757 87.8933 167.207 88.1623C167.657 88.4313 168.743 89.363 168.805 89.4942C168.867 89.6254 169.248 90.088 169.566 90.4193L169.885 90.7506C170.141 90.9507 170.797 90.639 170.721 91.1574L170.708 91.8071C171.296 91.6889 171.814 91.7642 172.008 91.8331C172.201 91.902 172.907 92.3711 173.356 92.6401L173.681 92.6466L174.268 92.5284C174.987 92.3479 175.774 91.9737 176.23 91.9179C176.624 91.7308 177.936 91.1073 178.33 90.9202L178.592 90.7955L178.855 90.6708C179.117 90.5461 179.642 90.2966 179.974 89.9783C180.174 89.7224 181.942 89.043 182.08 88.6558L182.661 88.8624C183.048 89.0002 182.861 88.6065 182.798 88.4753C182.611 88.0816 182.618 87.7568 183.267 87.7698L183.399 87.7074C183.53 87.6451 183.668 87.2579 183.543 86.9954L184.061 87.0709L184.255 87.1397C184.586 86.8214 184.918 86.5031 184.98 86.6344C185.174 86.7032 185.63 86.6474 185.63 86.6474L185.761 86.585C186.424 85.9484 187.086 85.3118 187.618 84.7376L187.949 84.4193C188.412 84.0386 188.75 83.3955 189.081 83.0772L189.537 83.0213L189.862 83.0279C190 82.6407 190.269 82.1912 190.4 82.1288L190.531 82.0665L190.662 82.0041C191.387 81.4987 191.981 81.0557 192.112 80.9934C192.244 80.931 192.637 80.744 192.893 80.9441C193.28 81.0818 193.562 79.9826 193.825 79.8579C194.087 79.7332 194.556 79.0277 194.688 78.9654C194.819 78.903 195.282 78.5223 195.288 78.1975C195.295 77.8727 196.138 77.9546 196.075 77.8234C196.013 77.6922 196.544 77.1179 196.938 76.9309L197.332 76.7438L197.594 76.6191C197.857 76.4944 198.195 75.8512 198.464 75.4017L199.182 75.2211L199.638 75.1653C200.101 74.7846 200.626 74.5352 200.826 74.2793C201.026 74.0234 201.557 73.4491 201.758 73.1931L202.082 73.1997C202.801 73.0191 203.263 72.6385 204.002 71.4835L204.133 71.4211C204.264 71.3587 204.92 71.0469 205.514 70.6039L205.783 70.1544L205.852 69.9608C206.114 69.8361 206.308 69.905 206.239 70.0986L206.301 70.2298L206.426 70.4923C206.682 70.6924 206.813 70.63 206.951 70.2429L207.089 69.8557L207.227 69.4685C207.558 69.1502 207.952 68.9631 207.883 69.1567C207.814 69.3503 208.395 69.5569 209.12 69.0516C209.845 68.5462 211.557 67.4108 211.295 67.5355C210.97 67.5289 210.051 67.9654 209.914 68.3526L209.713 68.6085L209.645 68.8021C209.382 68.9269 209.188 68.858 209.126 68.7268C209.064 68.5955 209.333 68.146 209.471 67.7588C209.671 67.5029 210.852 66.9417 210.983 66.8793C211.114 66.8169 211.121 66.4921 211.314 66.561C211.508 66.6299 212.295 66.2557 212.958 65.6191L213.358 65.1073C213.627 64.6577 213.821 64.7266 214.277 64.6708C214.927 64.6838 215.451 64.4344 215.789 63.7912L215.858 63.5977C216.121 63.4729 216.583 63.0923 216.846 62.9676C217.108 62.8429 218.096 62.2128 218.552 62.157L218.821 61.7074L219.09 61.2579C219.552 60.8772 219.946 60.6901 219.946 60.6901C219.946 60.6901 220.471 60.4407 220.996 60.1913C221.521 59.9419 222.902 59.1247 223.033 59.0624C223.102 58.8688 223.758 58.557 224.277 58.6324C224.795 58.7078 226.12 57.4346 226.383 57.3099L226.645 57.1852C226.908 57.0605 227.295 57.1982 227.426 57.1359C227.626 56.8799 227.502 56.6174 227.571 56.4238L227.639 56.2303C227.902 56.1055 228.164 55.9808 228.296 55.9185C228.489 55.9873 228.82 55.6691 228.952 55.6067C229.021 55.4131 229.352 55.0948 229.546 55.1637L229.677 55.1013C230.07 54.9143 230.658 54.7961 230.858 54.5401C231.127 54.0906 231.458 53.7723 231.977 53.8477C232.108 53.7853 232.308 53.5294 232.377 53.3358C232.446 53.1422 233.689 52.7123 234.014 52.7188C234.276 52.5941 235.133 52.0263 235.008 51.7638C234.883 51.5014 235.927 51.3274 236.251 51.3339C236.576 51.3404 237.889 50.7168 238.213 50.7234C238.407 50.7922 238.745 50.1491 238.938 50.218C239.07 50.1556 239.726 49.8439 239.795 49.6503C239.864 49.4567 240.658 48.7578 241.114 48.7019L241.438 48.7084L242.475 48.8592C241.963 48.459 241.97 48.1342 242.488 48.2096C242.944 48.1537 244.188 47.7238 244.381 47.7926C244.575 47.8615 245.031 47.8057 245.1 47.6121C245.169 47.4185 245.251 46.5752 245.326 46.0568L246.232 46.27C246.75 46.3454 247.35 45.5776 247.994 45.9154L248.187 45.9843C248.45 45.8596 248.781 45.5413 248.919 45.1541C249.119 44.8982 250.037 44.4617 250.562 44.2123L250.956 44.0252L251.219 43.9005C251.419 43.6446 251.944 43.3951 252.275 43.0768C252.669 42.8897 254.306 42.2727 254.568 42.148C254.831 42.0233 255.556 41.5179 255.618 41.6491C255.68 41.7804 256.199 41.8558 256.461 41.731C256.724 41.6063 256.674 40.8255 256.674 40.8255C256.806 40.7631 257.524 40.5826 258.374 40.3397L258.968 39.8967L259.099 39.8343C259.23 39.7719 259.755 39.5225 260.342 39.4043C260.93 39.2861 262.311 38.469 262.961 38.482L263.167 37.9012C263.305 37.5141 263.505 37.2581 263.755 37.7831C263.879 38.0455 264.273 37.8584 264.411 37.4713L264.611 37.2153C265.005 37.0283 265.467 36.6476 265.667 36.3916L265.93 36.2669L266.061 36.2046C266.254 36.2735 266.642 36.4112 266.773 36.3489C266.967 36.4178 267.754 36.0436 268.148 35.8566L268.279 35.7942L268.485 35.2134C269.004 35.2888 269.46 35.233 269.66 34.977L269.86 34.7211L270.06 34.4651C270.848 34.091 271.704 33.5233 272.035 33.205C272.367 32.8867 273.804 32.5256 274.391 32.4074L274.66 31.9579L274.929 31.5083C275.385 31.4525 276.041 31.1407 276.566 30.8913C277.091 30.6419 278.597 30.0872 278.666 29.8936L278.735 29.7C278.735 29.7 278.866 29.6376 278.928 29.7689C278.991 29.9001 279.447 29.8443 279.584 29.4571C279.722 29.0699 281.29 28.6465 281.684 28.4594C282.015 28.1411 283.315 28.1672 283.315 28.1672C283.315 28.1672 283.646 27.8489 283.977 27.5306C284.309 27.2123 286.602 26.2835 286.996 26.0964L287.196 25.8404L287.327 25.7781C287.202 25.5157 287.271 25.322 287.465 25.3909C287.659 25.4598 288.246 25.3416 288.439 25.4105C288.571 25.3481 289.233 24.7115 289.696 24.3308C290.027 24.0125 291.533 23.4579 291.727 23.5268C291.989 23.402 292.908 22.9655 293.302 22.7785L293.695 22.5914L293.826 22.5291C293.833 22.2043 294.033 21.9483 294.358 21.9548C294.683 21.9613 295.208 21.7119 295.408 21.4559C295.477 21.2623 296.458 20.9571 296.727 20.5076L297.37 20.8454C297.37 20.8454 297.832 20.4648 298.226 20.2777C298.557 19.9594 299.545 19.3293 299.676 19.267C299.939 19.1423 300.726 18.7681 301.051 18.7746C301.376 18.7811 302.107 17.951 302.432 17.9575C302.757 17.964 303.813 17.1404 304.076 17.0157C304.338 16.891 305.119 16.8416 305.381 16.7169L305.582 16.461C305.651 16.2674 305.913 16.1427 306.238 16.1492L306.694 16.0933C307.15 16.0375 307.868 15.857 308.2 15.5387L308.531 15.2203L308.994 14.8397C309.65 14.5279 310.7 14.0291 311.162 13.6484L311.805 13.9863L312.537 13.1561L312.668 13.0938C312.799 13.0314 313.456 12.7196 314.112 12.4078C314.899 12.0337 316.986 11.6856 317.117 11.6233C317.248 11.5609 317.911 10.9243 318.242 10.606C318.574 10.2877 320.073 10.0579 320.073 10.0579C320.073 10.0579 320.792 9.87731 321.317 9.62788C321.841 9.37846 323.597 9.34872 323.728 9.28636C323.666 9.15513 323.672 8.83029 323.61 8.69906C323.548 8.56782 324.266 8.38729 324.66 8.20022C325.053 8.01315 325.972 7.57663 326.028 8.03269C326.021 8.35751 327.659 7.74048 327.465 7.67161C327.403 7.54037 327.215 7.14666 327.347 7.0843C327.478 7.02194 328.196 6.84142 328.459 6.71671C328.784 6.72323 329.902 6.03079 330.165 5.90608C330.427 5.78136 331.34 5.66971 331.602 5.545C331.864 5.42029 332.458 4.97724 332.658 4.7213C332.859 4.46535 333.702 4.5473 333.833 4.48495C333.964 4.42259 334.558 3.97956 334.752 4.04844C335.014 3.92373 335.795 3.87438 336.12 3.8809L336.32 3.62498L336.451 3.5626C336.776 3.56912 336.832 4.02521 336.694 4.41238L337.481 4.03822C337.875 3.85115 338.269 3.6641 337.951 3.33276L337.826 3.07027C338.026 2.81433 338.744 2.63378 339.138 2.44671L339.394 2.64687C339.65 2.84698 339.45 3.10288 339.056 3.28995C339.181 3.55241 339.437 3.75252 339.699 3.6278L339.768 3.43427C339.906 3.04709 339.912 2.72227 340.113 2.46633L340.313 2.21036C340.706 2.02329 341.162 1.96745 341.225 2.09868C341.287 2.22991 341.993 2.69902 342.511 2.77442C342.967 2.71858 343.83 1.82603 343.83 1.82603C343.83 1.82603 344.417 1.70784 344.873 1.65201C345.329 1.59617 346.448 0.903749 346.317 0.966105C346.248 1.15969 346.235 1.80931 346.36 2.07178L346.484 2.33426L346.671 2.72795C346.858 3.12165 347.308 3.39063 347.57 3.26592C347.895 3.27244 348.739 3.35436 348.926 3.74806C349.05 4.01052 348.319 4.84071 348.194 4.57825C348.069 4.31578 347.689 3.8532 347.62 4.04679C347.551 4.24038 347.538 4.89004 347.663 5.15251C347.787 5.41497 348.824 5.56577 349.024 5.30983C349.356 4.99152 350.212 4.42379 350.205 4.74861C350.199 5.07343 350.517 5.40475 350.642 5.66721C350.835 5.73609 351.278 6.32993 351.472 6.39881L351.603 6.33646C351.997 6.1494 352.253 6.34948 352.115 6.73666L352.109 7.06149C351.653 7.11732 351.134 7.04195 350.941 6.97307C350.941 6.97307 350.553 6.83531 350.678 7.09778C350.803 7.36025 350.727 7.87866 350.403 7.87214C350.147 7.67203 349.828 7.34066 349.766 7.20942C349.704 7.07819 349.185 7.00279 349.116 7.19638C349.047 7.38997 348.972 7.90839 348.903 8.10198C348.703 8.35793 348.296 9.19461 347.64 9.50639L347.053 9.62463L346.466 9.74282C345.809 10.0546 345.153 10.3664 345.091 10.2351C344.897 10.1663 344.441 10.2221 344.372 10.4157C344.303 10.6093 343.772 11.1835 343.703 11.3771C343.634 11.5707 342.916 11.7512 342.716 12.0072C342.516 12.2631 341.341 12.4995 341.141 12.7554C340.941 13.0114 339.773 12.923 339.379 13.11C339.117 13.2347 338.06 14.0584 337.604 14.1143L337.21 14.3013L336.948 14.4261C336.554 14.6131 336.161 14.8002 336.161 14.8002C336.029 14.8625 334.979 15.3613 333.861 16.0538C332.811 16.5526 329.724 18.1804 329.33 18.3675C328.874 18.4233 327.555 19.3717 326.899 19.6835L326.312 19.8017L325.855 19.8575C325.655 20.1135 325.324 20.4318 325.124 20.6877L324.93 20.6188L323.762 20.5304C322.644 21.2229 321.462 21.7841 321.069 21.9711C320.675 22.1582 319.294 22.9753 318.9 23.1624C318.506 23.3495 317.063 24.0354 316.538 24.2848C316.144 24.4719 314.901 24.9018 314.957 25.3579L314.176 25.4072L313.588 25.5254C313.126 25.9061 312.47 26.2179 311.882 26.336L311.551 26.6543L311.22 26.9726C310.764 27.0285 310.301 27.4091 310.17 27.4715C309.97 27.7274 308.802 27.639 308.283 27.5636C307.696 27.6818 306.433 29.0862 306.039 29.2733C305.514 29.5227 304.202 30.1463 303.877 30.1398C303.552 30.1333 302.758 30.8322 302.496 30.9569C302.234 31.0816 301.315 31.5181 301.115 31.774C300.915 32.03 300.065 32.2729 299.803 32.3976C299.54 32.5223 298.621 32.9588 298.359 33.0835C298.096 33.2082 297.316 33.2576 297.316 33.2576C297.316 33.2576 296.459 33.8253 295.534 34.5866C294.74 35.2856 292.647 35.9584 292.385 36.0831C292.122 36.2079 291.003 36.9003 290.478 37.1497C289.885 37.5927 287.404 38.1278 286.486 38.5643C285.567 39.0008 283.323 40.7106 283.192 40.7729C283.06 40.8353 282.017 41.0093 281.167 41.2522L280.698 41.9577C280.498 42.2136 279.986 41.8134 279.911 42.3318L279.904 42.6566C279.517 42.5188 277.88 43.1359 276.243 43.7529L274.862 44.5701L274.468 44.7572C274.074 44.9442 273.356 45.1248 272.831 45.3742L272.437 45.5613C272.23 46.142 271.788 45.5482 271.65 45.9354C271.381 46.3849 270.8 46.1783 270.406 46.3654L270.013 46.5524C269.681 46.8707 269.219 47.2514 269.019 47.5074C268.818 47.7633 267.775 47.9373 267.513 48.062C267.313 48.318 266.013 48.2919 265.751 48.4166C265.426 48.4101 264.888 49.3092 264.888 49.3092C264.888 49.3092 263.907 49.6144 262.926 49.9197L262.07 50.4874L261.738 50.8057C261.213 51.0551 260.751 51.4358 260.488 51.5605C260.288 51.8165 258.989 51.7903 258.526 52.171C258.002 52.4204 256.095 53.487 255.508 53.6052L255.17 54.2483L255.101 54.4419C254.645 54.4978 253.533 54.8654 252.614 55.3019C251.696 55.7384 249.521 57.2545 249.196 57.2479C248.871 57.2414 248.271 58.0093 248.008 58.134C247.808 58.3899 247.158 58.3769 247.027 58.4392C247.027 58.4392 246.565 58.8199 246.233 59.1382L245.84 59.3252L245.577 59.45C245.252 59.4434 244.727 59.6929 244.334 59.8799L244.134 60.1359L243.865 60.5854C243.409 60.6412 242.69 60.8218 242.559 60.8842C242.296 61.0089 241.571 61.5142 241.565 61.8391C241.365 62.095 240.453 62.2067 240.128 62.2001C239.865 62.3248 239.396 63.0303 239.002 63.2174C238.609 63.4045 237.428 63.9657 237.165 64.0904C236.771 64.2775 235.453 65.2258 234.665 65.6C233.94 66.1053 231.447 67.2901 231.053 67.4772C230.659 67.6643 229.534 68.6815 229.14 68.8686C228.878 68.9933 227.822 69.817 227.428 70.004C227.034 70.1911 225.847 71.0771 225.453 71.2642C225.059 71.4513 223.934 72.4685 223.602 72.7868C223.14 73.1675 221.434 73.9781 220.909 74.2275C220.384 74.477 219.128 75.5566 218.927 75.8125C218.796 75.8749 218.009 76.249 217.746 76.3737C217.484 76.4984 216.884 77.2662 216.621 77.3909C216.359 77.5157 215.302 78.3394 214.708 78.7824C214.115 79.2254 212.071 80.6792 211.477 81.1222C210.883 81.5652 209.426 82.9007 209.102 82.8942C208.777 82.8877 208.439 83.5308 208.177 83.6555C208.045 83.7179 207.514 84.2921 207.251 84.4168C206.989 84.5415 206.52 85.2471 206.257 85.3718C205.995 85.4965 205.201 86.1954 204.738 86.5761C204.276 86.9567 202.819 88.2923 202.357 88.6729C201.894 89.0536 199.975 90.7698 199.243 91.6L198.387 92.1677L197.993 92.3548C197.531 92.7355 197.068 93.1161 196.868 93.372C196.668 93.628 196.074 94.071 195.812 94.1957C195.549 94.3204 194.755 95.0194 194.431 95.0129C194.037 95.2 192.511 96.7291 191.386 97.7464L190.074 98.3699C189.68 98.557 189.286 98.744 189.024 98.8688C188.693 99.1871 188.361 99.5054 188.03 99.8237L187.767 99.9484C187.311 100.004 186.918 100.191 186.717 100.447C186.517 100.703 185.474 100.877 185.149 100.871C184.824 100.864 183.975 101.107 183.781 101.038C183.65 101.101 183.125 101.35 182.994 101.412C182.8 101.343 182.137 101.98 182.068 102.174C182 102.367 180.694 102.666 179.651 102.84L178.738 102.952L178.607 103.014C178.482 102.752 178.351 102.814 178.282 103.007C178.213 103.201 177.357 103.769 176.639 103.949C175.989 103.936 173.922 103.31 173.41 102.91L172.56 103.153L172.104 103.208C171.53 102.677 170.824 102.208 170.568 102.008C170.313 101.808 169.282 101.332 168.701 101.125C168.183 101.05 167.684 100 167.491 99.9312C167.491 99.9312 167.035 99.9871 166.841 99.9182C166.71 99.9806 165.873 99.5739 165.23 99.236L164.318 99.3476C163.537 99.3969 162.763 99.1215 161.982 99.1708C161.788 99.1019 161.519 99.5514 161.257 99.6761C160.863 99.8632 160.338 100.113 160.007 100.431L159.544 100.812C159.082 101.192 158.681 101.704 158.419 101.829C158.156 101.954 157.5 102.265 157.175 102.259C156.851 102.252 156.575 103.027 156.25 103.02L155.857 103.207C155.463 103.394 154.876 103.512 154.544 103.831L153.819 104.336C153.094 104.841 152.3 105.54 151.906 105.728C151.644 105.852 151.562 106.695 151.362 106.951C151.162 107.207 150.306 107.775 150.043 107.9C149.781 108.025 148.856 108.786 148.524 109.104C148.193 109.422 146.812 110.24 146.812 110.24C146.68 110.302 146.674 110.627 146.474 110.883C146.274 111.139 145.48 111.838 145.28 112.094C145.08 112.349 143.961 113.042 143.629 113.36C143.298 113.679 142.235 114.827 141.973 114.952C141.71 115.076 141.048 115.713 140.398 115.7L140.903 116.425C140.903 116.425 140.834 116.619 140.703 116.681L140.178 116.93C139.909 117.38 139.378 117.954 139.046 118.273C138.715 118.591 137.528 119.477 137.196 119.795C136.865 120.113 135.808 120.937 135.608 121.193C135.477 121.255 135.139 121.899 134.752 121.761C134.365 121.623 134.145 122.853 134.076 123.047L133.945 123.109C133.227 123.29 132.889 123.933 132.426 124.314L132.226 124.57C132.026 124.826 131.826 125.082 131.695 125.144C131.563 125.206 131.363 125.462 131.426 125.593C131.488 125.725 130.769 125.905 130.638 125.968C130.507 126.03 129.72 126.404 129.326 126.591L129.506 127.31L129.5 127.634C128.844 127.946 128.119 128.452 127.656 128.832C127.131 129.082 126.262 130.299 126.131 130.361C125.999 130.424 124.687 131.047 123.637 131.546L123.742 132.783L123.798 133.239C123.411 133.101 122.955 133.157 122.624 133.476C122.292 133.794 121.298 134.749 121.16 135.136L120.517 134.798C120.517 134.798 120.124 134.985 120.186 135.116L119.717 135.822C119.123 136.265 118.46 136.901 118.129 137.22C117.929 137.476 116.686 137.906 116.479 138.486L115.823 138.798C115.429 138.985 116.266 139.392 115.547 139.573L115.285 139.697C115.022 139.822 114.691 140.14 114.622 140.334C114.553 140.527 113.904 140.514 113.703 140.77C113.503 141.026 113.097 141.863 112.959 142.25L112.178 142.3L112.047 142.362C111.778 142.811 111.378 143.323 111.115 143.448L110.853 143.573L110.459 143.76C110.065 143.947 109.009 144.771 108.084 145.532L107.352 146.362C107.283 146.556 107.214 146.749 106.89 146.743L106.502 146.605C106.496 146.93 106.227 147.379 106.027 147.635L105.764 147.76L105.239 148.009C104.839 148.521 104.508 148.84 104.57 148.971C104.57 148.971 103.976 149.414 103.382 149.857L102.982 150.369L102.582 150.881C102.051 151.455 101.394 151.767 101.263 151.829C101.07 151.76 100.607 152.141 100.413 152.072C100.22 152.003 100.269 152.784 100.007 152.909L99.7442 153.033L99.613 153.096C99.4194 153.027 99.0881 153.345 98.9503 153.732L98.619 154.051C98.2876 154.369 97.9563 154.687 97.5626 154.874L97.3001 154.999C97.1 155.255 96.831 155.704 96.6244 156.285C96.3554 156.735 94.7248 157.027 94.4623 157.152C94.1998 157.276 93.7307 157.982 93.3994 158.3C93.1369 158.425 92.2118 159.186 91.9493 159.311C91.6869 159.436 91.4737 160.341 91.2112 160.466C90.9488 160.591 89.9678 160.896 89.6429 160.889C89.4494 160.821 89.2362 161.726 88.9049 162.044C88.7048 162.3 88.2487 162.356 88.0551 162.287C87.8615 162.218 87.1988 162.855 86.9987 163.111C86.7986 163.367 86.0736 163.872 85.88 163.803C85.6864 163.735 85.0237 164.371 84.9548 164.565C84.2428 164.42 84.1674 164.939 83.9673 165.195C83.8361 165.257 83.5736 165.382 83.5048 165.575C83.4359 165.769 82.7239 165.625 82.5926 165.687C82.5303 165.556 82.0742 165.612 81.9365 165.999C81.7987 166.386 80.7554 166.56 80.8866 166.498C80.8243 166.367 80.6307 166.298 80.2993 166.616C79.968 166.934 78.731 167.039 78.5998 167.102C78.3373 167.226 77.55 167.601 77.2875 167.725C77.025 167.85 75.4502 168.598 74.2691 169.16C73.088 169.721 70.0204 170.374 69.7644 170.174C69.5085 169.974 68.1338 170.466 67.5465 170.584L67.1593 170.447L66.7098 170.178C66.0601 170.165 65.5417 170.089 65.4794 169.958C65.417 169.827 64.8297 169.945 64.5049 169.938C64.1801 169.932 63.2121 169.587 62.825 169.45C62.5001 169.443 62.0636 168.525 61.87 168.456C61.6141 168.256 60.8463 167.655 60.9151 167.462C60.984 167.268 60.2032 167.317 60.2032 167.317C60.2786 166.799 59.829 166.53 59.2417 166.648L58.9169 166.642C58.8545 166.51 59.0546 166.254 59.1924 165.867L59.0677 165.605L59.0053 165.474C59.0807 164.955 58.8871 164.886 58.687 165.142C58.4869 165.398 57.9555 165.972 57.9555 165.972C57.9555 165.972 57.9061 165.192 57.7814 164.929C57.7879 164.604 56.9512 164.198 56.7577 164.129C56.5641 164.06 56.377 163.666 55.921 163.722L55.8586 163.591L55.7404 163.003C55.2909 162.734 54.6543 162.072 54.2736 161.609C53.893 161.147 52.3508 160.271 52.0948 160.071L51.8389 159.871L51.5206 159.539C51.071 159.27 50.1162 158.276 49.286 157.545L49.2236 157.413C49.0365 157.02 48.9807 156.564 48.7247 156.363L47.7698 155.369C47.4087 153.932 46.8475 152.751 46.7852 152.62L46.7228 152.489L46.5981 152.226C46.6046 151.902 46.4241 151.183 46.3059 150.596L46.9881 148.985C46.9258 148.853 46.8634 148.722 46.9323 148.529C47.0012 148.335 46.4893 147.935 46.6205 147.872C46.6894 147.679 46.7779 146.511 46.9221 145.799L46.9351 145.149C46.8793 144.693 46.8235 144.237 47.1548 143.919L47.4927 143.276C47.2433 142.751 46.9938 142.226 47.2563 142.101C47.5188 141.976 47.8501 141.658 47.6565 141.589C47.5253 141.652 47.0069 141.576 47.1381 141.514C47.2694 141.451 47.4695 141.195 47.4071 141.064C47.4071 141.064 47.0199 140.927 46.8887 140.989C46.5639 140.982 45.7699 141.681 45.4386 142C45.1073 142.318 43.9131 143.529 43.4506 143.909C42.988 144.29 41.9874 145.57 41.8562 145.632L41.725 145.695L40.5997 146.712C40.3996 146.968 40.1995 147.224 39.8681 147.542L39.668 147.798C39.4679 148.054 39.2678 148.31 39.3925 148.572L38.9988 148.759L38.7364 148.884C38.5363 149.14 37.9424 149.583 37.4799 149.964C37.0173 150.344 35.7478 152.074 35.4164 152.392L35.085 152.71L34.885 152.966C34.5536 153.284 34.0222 153.859 33.6843 154.502C33.2841 155.014 31.6208 156.93 31.2206 157.442C30.8204 157.954 29.4262 159.421 29.226 159.677C29.1572 159.87 28.4256 160.7 28.2255 160.956C28.0254 161.212 27.1002 161.974 26.9001 162.229C26.5688 162.548 25.7748 163.247 25.8372 163.378C25.8996 163.509 25.5617 164.152 24.9614 164.92C24.2987 165.557 22.104 168.047 21.2412 168.94L20.7656 169.97C20.5589 170.551 20.3523 171.132 20.0144 171.775L19.6142 172.287C19.2764 172.93 18.7384 173.829 18.4005 174.472C18.0627 175.115 16.6684 176.582 16.4683 176.838C16.2682 177.094 15.7368 177.668 15.3431 177.855L15.0806 177.98L14.4933 178.098C13.7748 178.279 13.1809 178.722 12.9808 178.978C12.7807 179.233 11.8063 179.214 11.8063 179.214C11.8063 179.214 11.3437 179.595 10.95 179.782L10.8942 179.326C10.8318 179.194 10.9007 179.001 10.8383 178.87C10.7825 178.414 10.8579 177.895 10.0082 178.138C9.5521 178.194 8.90245 178.181 8.65303 177.656C8.52831 177.393 8.33472 177.324 7.94102 177.512L7.61618 177.505C7.36023 177.305 6.32994 176.829 5.42435 176.616L5.44393 175.642C5.3127 175.704 4.7319 175.497 4.0199 175.353L3.70812 174.697L3.4587 174.172C2.81558 173.834 2.04777 173.234 1.72947 172.903C1.41117 172.571 1.17476 171.397 1.24363 171.203L0.725231 171.128L0.600531 170.865L0.669412 170.672C0.869522 170.416 0.744822 170.153 0.551232 170.084L0.688955 169.697C0.757832 169.504 0.826728 169.31 0.702016 169.047C0.63966 168.916 0.383719 168.716 0.452596 168.523C0.459117 168.198 0.659223 167.942 0.7281 167.748L0.934703 167.167C1.14133 166.587 1.15441 165.937 0.898467 165.737C0.642522 165.537 1.49877 164.969 1.50529 164.644C1.57417 164.451 2.23688 163.814 2.17452 163.683C2.11216 163.552 2.18755 163.033 2.38766 162.777C2.52542 162.39 3.12573 161.622 3.12573 161.622C3.19461 161.429 3.20116 161.104 3.27003 160.91C3.20768 160.779 3.60791 160.267 3.74566 159.88C4.01465 159.43 5.13991 158.413 5.40238 158.288C5.66484 158.164 5.74673 157.32 5.94684 157.065C6.14695 156.809 6.42247 156.034 6.48483 156.165C6.54718 156.297 6.87202 156.303 6.68495 155.909C6.56024 155.647 7.42954 154.43 7.7674 153.787L8.54827 153.737L8.74841 153.481C8.88616 153.094 8.95503 152.901 8.96155 152.576C9.09931 152.189 9.2929 152.257 9.61772 152.264C10.0738 152.208 10.4674 152.021 9.69308 151.745C9.69308 151.745 9.83087 151.358 10.031 151.102C10.1622 151.04 10.487 151.047 10.6183 150.984L11.0939 149.954C12.1503 149.13 13.013 148.238 12.8883 147.975L12.9572 147.782C13.0884 147.719 13.5445 147.663 13.8693 147.67L13.8759 147.345L13.8135 147.214C13.4263 147.076 13.4328 146.751 13.5641 146.689C13.8265 146.564 14.5516 146.059 14.6828 145.996C14.9453 145.872 15.4209 144.841 15.4963 144.323L15.7653 143.874L15.9654 143.618C16.4903 143.368 17.3466 142.8 18.0716 142.295L18.0223 141.514C18.0223 141.514 18.2848 141.389 18.416 141.327C18.6785 141.202 19.0033 141.209 19.0722 141.015L19.2723 140.759C19.1476 140.497 19.3477 140.241 19.6102 140.116L19.8726 139.992C20.0727 139.736 20.4041 139.417 20.6042 139.161L20.8043 138.905C20.9421 138.518 21.1422 138.262 21.2734 138.2C21.4046 138.138 21.736 137.819 21.8737 137.432L22.1362 137.307L22.3987 137.183C22.7235 137.189 23.2484 136.94 23.3797 136.877L23.4485 136.684L23.6486 136.428C23.7864 136.041 23.8553 135.847 23.9241 135.654C23.993 135.46 24.2555 135.335 24.5803 135.342L24.7115 135.279L25.2988 135.161C25.5678 134.712 26.3617 134.013 26.8243 133.632L27.0933 133.183L27.2934 132.927C27.4311 132.539 27.8249 132.352 28.1497 132.359C28.3433 132.428 28.6188 131.653 28.8813 131.529C29.1437 131.404 29.8688 130.899 30.0689 130.643C30.269 130.387 31.1122 130.469 31.2434 130.406C31.3747 130.344 32.0374 129.707 32.4376 129.195L32.9625 128.946C33.3562 128.759 33.7499 128.572 34.1436 128.385C34.5373 128.198 34.5373 128.198 34.4126 127.935L34.3502 127.804C34.4191 127.61 34.5504 127.548 34.8752 127.555C35.2 127.561 35.6691 126.856 35.8003 126.793C35.9316 126.731 37.3751 126.045 38.5562 125.484C39.7373 124.923 43.0051 124.013 43.1363 123.951C43.2675 123.889 43.8549 123.77 44.1797 123.777L44.511 123.459C44.5799 123.265 45.0359 123.209 45.2984 123.085C45.8233 122.835 46.3418 122.91 46.6796 122.267C47.3293 122.28 47.7853 122.225 47.723 122.093C47.6606 121.962 48.5169 121.394 48.973 121.339C49.429 121.283 50.597 121.371 50.9842 121.509C51.3714 121.647 52.4836 121.279 52.6149 121.217C52.7461 121.154 53.2645 121.23 53.7829 121.305C54.3013 121.381 55.7188 121.994 55.6499 122.187C55.5811 122.381 56.3554 122.657 56.549 122.725C56.7426 122.794 57.3857 123.132 57.5793 123.201C57.7729 123.27 58.3471 123.801 58.4718 124.064C58.5966 124.326 59.2955 125.12 59.3644 124.927C59.4333 124.733 59.5645 124.671 59.6892 124.933C59.8139 125.196 60.7065 126.058 60.7623 126.514C60.8181 126.971 61.8419 127.771 62.3538 128.171C62.8657 128.571 64.2078 129.703 64.5326 129.71C64.7951 129.585 66.2126 130.198 66.5374 130.205C66.8622 130.211 66.9115 130.992 67.1051 131.061C67.2987 131.13 67.8795 131.337 67.9418 131.468C67.8729 131.662 68.1912 131.993 68.2536 132.124C68.4472 132.193 69.3956 133.512 69.914 133.587L69.2578 133.899C69.3202 134.03 69.3136 134.355 69.376 134.486C69.4384 134.618 69.8749 135.536 70.2555 135.999L70.0489 136.58C69.9111 136.967 70.0293 137.554 70.2164 137.948L70.3411 138.21C70.141 138.466 69.9343 139.047 69.7966 139.434L69.7901 139.759L69.7836 140.084C69.8394 140.54 69.764 141.058 69.6951 141.252C69.6263 141.445 69.5443 142.289 69.6067 142.42C69.7314 142.682 69.656 143.201 69.8431 143.594C69.9678 143.857 69.105 144.749 69.2297 145.012C69.2232 145.337 69.1347 146.505 68.997 146.892C68.9216 147.41 68.6889 149.29 68.7382 150.071L68.5939 150.783C68.4497 151.495 68.3053 152.207 68.1611 152.919L68.0922 153.113C68.2169 153.375 68.8042 153.257 69.398 152.814C69.9918 152.371 71.629 151.754 71.7602 151.692L71.7667 151.367L71.7109 150.911C72.0357 150.917 72.4918 150.861 72.5607 150.668C72.6295 150.474 73.3546 149.969 73.7483 149.782C74.2732 149.532 74.9424 148.571 75.1983 148.771C75.4543 148.971 76.1859 148.141 76.6485 147.76C77.111 147.38 77.918 146.031 78.1805 145.906C78.4429 145.782 79.0433 145.014 79.3057 144.889C79.5682 144.764 80.0996 144.19 80.2308 144.128C80.2997 143.934 80.9494 143.947 81.0806 143.885C81.2118 143.823 81.3496 143.435 81.6121 143.311C81.6809 143.117 82.3371 142.805 82.5995 142.681C82.862 142.556 83.7314 141.339 84.5942 140.446L85.5817 139.816L86.2378 139.504C86.9629 138.999 87.5567 138.556 87.7568 138.3L87.8257 138.106L88.0947 137.657C88.6196 137.407 89.0822 137.027 89.151 136.833C89.2199 136.639 89.3577 136.252 89.4889 136.19C89.6201 136.128 90.1451 135.878 90.214 135.685C90.3452 135.622 90.8143 134.917 90.8897 134.398L91.664 134.674C91.664 134.674 91.9265 134.549 91.9954 134.355L93.5339 132.177Z" fill="#6FB2A5"/>
</svg>
