<svg width="80" height="80" viewBox="0 0 80 80" fill="none" xmlns="http://www.w3.org/2000/svg">
<rect width="80" height="80" rx="20" fill="#FE5B3E" fill-opacity="0.1"/>
<path d="M36.1712 46.9015L38.7968 34.0105L39.8002 33.4686L41.5336 35.027C40.6138 36.3859 40.0765 38.0248 40.0765 39.7893C40.0765 44.4872 43.8848 48.2955 48.5827 48.2955C53.2806 48.2955 57.089 44.4872 57.089 39.7893C57.089 35.0914 53.2806 31.283 48.5827 31.283C46.4925 31.283 44.5788 32.0374 43.0979 33.2881L40.902 31.3139L37.693 25.3725L41.7764 23.1671L42.1676 23.8875C42.3257 24.1786 42.3607 24.5138 42.2663 24.8313C42.1719 25.1488 41.9594 25.4104 41.668 25.5678L40.7149 26.0826L41.8264 28.1406L42.7795 27.6259C43.6216 27.1711 44.2355 26.4154 44.5084 25.4981C44.7811 24.5808 44.6798 23.6124 44.2231 22.7713L42.7182 20L34.5235 24.4259L38.3845 31.5747L27.2648 37.5805L26.928 36.957C26.107 35.4368 24.2022 34.868 22.6821 35.6891L20.5138 36.8602L21.6253 38.9182L23.7937 37.747C23.9804 37.6462 24.1951 37.6241 24.3984 37.6848C24.6017 37.7455 24.7692 37.8818 24.8701 38.0684L25.6856 39.5785L26.3104 42.3747C22.6769 43.343 20 46.6558 20 50.5942C20 55.2921 23.8084 59.1005 28.5062 59.1005C33.2041 59.1005 37.0125 55.2921 37.0125 50.5942C37.0126 49.271 36.7103 48.0184 36.1712 46.9015ZM43.0978 33.288L49.3646 38.9223L47.8008 40.6616L41.5335 35.027C41.9731 34.3776 42.5004 33.7926 43.0978 33.288ZM36.1148 35.459L34.3004 44.3673C32.8126 42.9823 30.8281 42.1243 28.6434 42.0897L28.1259 39.7738L36.1148 35.459ZM28.5062 42.088C28.5521 42.088 28.5977 42.089 28.6433 42.0897L30.0673 48.4628L33.8863 46.4002L34.3003 44.3673C35.0709 45.0846 35.7085 45.9428 36.1712 46.9014L35.9599 47.9385L28.4587 51.9899L26.3104 42.3748C27.0109 42.188 27.7469 42.088 28.5062 42.088Z" fill="#FE5B3E"/>
<path d="M54.0743 50.587H50.3139C48.9151 50.587 47.5643 51.0934 46.5103 52.0129L45.2781 53.0878H44.301C42.2556 53.0878 40.3425 54.1842 39.3085 55.9492L36.9354 60.0002H60V43.4478L54.0743 50.587Z" fill="#FE5B3E"/>
</svg>
