<svg width="81" height="80" viewBox="0 0 81 80" fill="none" xmlns="http://www.w3.org/2000/svg">
<rect x="0.250244" width="80" height="80" rx="20" fill="#FE5B3E" fill-opacity="0.1"/>
<g clip-path="url(#clip0_83_124)">
<path d="M30.9863 40.56C30.9863 40.56 28.8567 42.3658 30.299 46.5479C30.3699 47.6381 29.8173 48.6687 29.2693 48.8757C28.7193 49.0819 27.2259 53.7465 29.3543 60.0004H31.8574C31.8574 60.0004 30.0636 56.5043 30.9835 53.0665C31.9004 49.6314 36.086 46.026 36.086 46.026C38.0108 47.0567 39.4901 46.607 41.9646 46.2647C42.5839 48.1197 43.7523 49.6243 43.958 50.2808C44.1645 50.936 43.7523 53.8242 46.7754 60.0004H49.5426C49.5426 60.0004 45.2128 52.7439 47.8943 46.5479C48.2358 46.1283 51.4654 43.9279 51.4654 39.5973C51.7423 36.3683 47.7902 33.0684 48.5801 31.4899C48.8543 30.9382 49.3356 30.7319 50.7116 30.9382C52.0856 31.1446 53.3213 30.8714 53.459 30.1133C53.5974 29.3584 53.2534 29.2899 51.9464 28.9456C50.7922 28.6416 50.385 27.5855 47.9233 27.2987C48.0915 27.0394 48.2419 26.7152 48.3525 26.2872C48.4802 25.7977 48.1869 25.2985 47.6961 25.172C47.2085 25.0464 46.7091 25.3402 46.5808 25.8281C46.4849 26.2079 46.3829 26.3354 46.3873 26.355C45.9973 26.3387 45.0641 25.4367 44.2107 24.3066C44.7769 23.9117 45.2569 23.2494 45.6417 22.3216C45.8342 21.8554 45.6126 21.3209 45.1459 21.128C44.6792 20.9343 44.1458 21.1552 43.9514 21.6226C43.7575 22.091 43.3602 22.881 42.878 22.9174C42.1208 22.9647 40.8204 21.5185 40.1803 20.4473C39.9216 20.013 39.3632 19.8713 38.927 20.1291C38.4926 20.3875 38.3512 20.9477 38.6101 21.3815C38.9161 21.8975 40.3805 24.205 42.213 24.6628C42.869 25.6501 45.202 27.9335 45.2615 28.0815C44.9459 28.1481 44.5694 28.1696 44.2944 28.0035C43.7339 27.6581 42.0016 27.6753 41.9394 28.2823C41.877 28.8923 43.1855 29.095 44.0303 29.2037C44.3391 29.2678 44.6544 29.1934 44.8753 29.3006L44.8797 29.2874C44.8399 29.6755 44.8525 30.1306 44.9362 30.6644C45.3499 33.277 47.0687 35.9564 45.6925 37.4689C44.3184 38.981 39.9919 38.4996 36.7593 37.949C33.5288 37.3999 27.044 38.1904 26.5119 40.2775C26.7178 41.2389 28.5808 41.8656 30.9863 40.56Z" fill="#FE5B3E"/>
</g>
<defs>
<clipPath id="clip0_83_124">
<rect width="40" height="40" fill="white" transform="translate(20 20)"/>
</clipPath>
</defs>
</svg>
