<svg width="81" height="80" viewBox="0 0 81 80" fill="none" xmlns="http://www.w3.org/2000/svg">
<rect x="0.250244" width="80" height="80" rx="20" fill="#FE5B3E" fill-opacity="0.1"/>
<g clip-path="url(#clip0_83_122)">
<path d="M44.5153 32.5576L45.6243 32.3084C45.7952 31.9256 46.0461 31.591 46.3543 31.3272C45.3119 31.0799 44.4299 30.4144 43.8964 29.5176L42.8092 29.7619C43.7391 30.3816 44.3867 31.3924 44.5153 32.5576Z" fill="#FE5B3E"/>
<path d="M33.8956 58.0484L35.4574 51.8953C35.4897 51.768 35.5325 51.6436 35.5854 51.5233L35.7262 51.2031C35.4796 51.032 35.2943 50.8042 35.1719 50.5234C35.0664 51.4625 34.4093 52.237 33.5329 52.5139C33.3423 52.9838 32.9235 53.3371 32.4144 53.4357L31.7649 57.804C31.6137 58.8206 32.3153 59.7674 33.332 59.9185C33.6012 59.9585 33.877 59.9415 34.16 59.8529C33.8467 59.3296 33.7337 58.6864 33.8956 58.0484Z" fill="#FE5B3E"/>
<path d="M36.1047 43.8494C36.0562 43.8388 35.2799 43.669 35.1583 43.6423C35.1772 43.7624 35.1871 43.8854 35.1871 44.0108V48.8641C35.4004 47.6991 35.8663 45.1529 36.1047 43.8494Z" fill="#FE5B3E"/>
<path d="M41.1264 35.8381C42.7007 35.5829 43.77 34.0997 43.5148 32.5255C43.2596 30.9512 41.7765 29.8818 40.2022 30.137C38.6279 30.3922 37.5586 31.8753 37.8138 33.4496C38.069 35.0239 39.5521 36.0933 41.1264 35.8381Z" fill="#FE5B3E"/>
<path d="M43.5328 50.494H44.7368C45.1035 50.494 45.3822 50.1296 45.3105 49.7379L45.2657 49.493C45.0197 49.3997 44.7943 49.2489 44.6109 49.0498C44.2698 48.6795 44.0993 48.1754 44.143 47.6669L44.3952 44.7353L43.777 41.3567L42.6613 41.489C41.7792 41.5936 40.9533 41.2003 40.4636 40.5312L38.6467 43.4694C38.0847 44.3782 37.0754 44.059 37.0655 44.0598L36.0266 49.7379C35.9549 50.1298 36.2322 50.494 36.6002 50.494H37.1403L36.5089 51.9297C36.4785 51.9989 36.4538 52.0704 36.4353 52.1437L34.8735 58.2967C34.6878 59.0282 35.1303 59.7718 35.8618 59.9574C36.5931 60.143 37.3368 59.7007 37.5225 58.9691L39.0564 52.9261L40.1261 50.494H40.7999V51.4769V53.1716C40.7999 53.3441 40.8325 53.5151 40.8961 53.6754L43.0621 59.1366C43.34 59.8371 44.1336 60.1818 44.8362 59.9031C45.0002 59.8381 45.1437 59.7439 45.2652 59.6302C45.0198 59.1896 44.889 58.6779 44.912 58.137L44.9793 56.5575L43.5329 52.9106V51.4769V50.494H43.5328Z" fill="#FE5B3E"/>
<path d="M35.7864 26.8428C37.6713 26.701 39.0843 25.0581 38.9425 23.1733C38.8007 21.2884 37.1578 19.8754 35.273 20.0172C33.3881 20.159 31.9751 21.8019 32.1169 23.6867C32.2587 25.5716 33.9016 26.9846 35.7864 26.8428Z" fill="#FE5B3E"/>
<path d="M29.5242 52.6238H28.0517C27.802 53.1214 27.2881 53.4645 26.6945 53.4645H26.591L25.9458 57.8044C25.7947 58.821 26.4963 59.7678 27.5129 59.9189C28.532 60.0704 29.4767 59.3661 29.6274 58.3518L30.3676 53.373C29.9997 53.2402 29.698 52.97 29.5242 52.6238Z" fill="#FE5B3E"/>
<path d="M41.2467 37.0435C40.6268 37.0435 40.1261 37.0435 39.4788 37.0435C38.8221 37.0435 38.2571 37.5472 38.1296 38.244L37.9363 39.3003L39.2545 38.5443L36.8914 40.8304L33.2774 40.0395C32.7008 39.9131 32.1303 40.2786 32.004 40.8557C31.9423 41.1374 31.9986 41.4172 32.1388 41.6447H32.8214C33.5674 41.6447 34.2334 41.9921 34.6673 42.5332L36.9942 43.0425C37.3424 43.1188 37.708 43.0165 37.9664 42.7664L40.3886 40.4231C40.1964 40.1272 40.067 39.784 40.0226 39.4099C39.9048 38.4164 40.4186 37.4941 41.2467 37.0435Z" fill="#FE5B3E"/>
<path d="M47.2558 30.4511C48.8705 30.4511 50.1795 29.1421 50.1795 27.5274C50.1795 25.9127 48.8705 24.6038 47.2558 24.6038C45.6411 24.6038 44.3322 25.9127 44.3322 27.5274C44.3322 29.1421 45.6411 30.4511 47.2558 30.4511Z" fill="#FE5B3E"/>
<path d="M56.5711 46.6581L52.6244 32.7314C52.3798 31.868 51.6141 31.3338 50.8192 31.4097C49.6616 31.5202 48.9281 31.5903 47.8852 31.6899C47.0753 31.7672 46.4378 32.4549 46.3626 33.3292L46.1074 36.2962L46.3741 36.2646L48.3433 34.3284L46.5427 37.3024L42.2255 37.8143C41.4988 37.9005 40.9797 38.5594 41.0658 39.2859C41.1521 40.0136 41.8119 40.5317 42.5375 40.4456L47.4971 39.8576C47.9025 39.8095 48.2631 39.5772 48.4745 39.2281L50.6101 35.7007L49.3732 39.7722C49.0119 40.9614 47.763 40.8528 47.6208 40.9008L45.6918 41.1296L45.1223 47.7511C45.0797 48.247 45.4689 48.6591 45.9188 48.6159C46.2142 48.5878 46.573 48.5535 46.9774 48.5149L46.403 50.6831C46.3717 50.8012 46.3533 50.9224 46.348 51.0445L46.0439 58.1851C46.0041 59.1192 46.7291 59.9087 47.6631 59.9484C47.6877 59.9494 47.7121 59.95 47.7365 59.95C48.6381 59.9499 49.3877 59.2387 49.4265 58.3292L49.7229 51.3723L50.5707 48.1717C50.7848 48.1513 50.9995 48.1308 51.2137 48.1104V51.6226C51.2137 51.7539 51.229 51.8848 51.2592 52.0125L52.8297 58.6471C53.014 59.4257 53.7088 59.9504 54.4756 59.9504C54.6046 59.9504 54.7358 59.9355 54.867 59.9044C55.7767 59.6891 56.3397 58.777 56.1244 57.8672L54.5994 51.425V47.7872C55.1252 47.737 55.5873 47.6929 55.9529 47.658C56.4041 47.615 56.7059 47.1337 56.5711 46.6581Z" fill="#FE5B3E"/>
<path d="M37.2184 34.7374C36.5324 32.9964 36.9669 31.8525 36.9669 31.8525C37.3195 30.7029 38.194 29.7797 39.3127 29.36L34.7937 27.8689C32.9974 27.2762 31.0198 27.7288 29.6624 29.046C27.7053 30.9451 25.5219 33.1255 25.5219 33.1255C25.0877 33.5495 24.9408 34.1878 25.1458 34.759L27.2354 40.5809C26.848 40.7063 26.567 41.0702 26.567 41.4988C26.5678 41.9352 26.5643 42.5023 26.571 42.5835H24.7794C24.0157 42.5835 23.3965 43.2472 23.3965 44.011V50.2582C23.3965 51.022 24.0157 51.6411 24.7794 51.6411H24.9554V51.9456C24.9554 52.2191 25.1771 52.4408 25.4506 52.4408H26.6944C26.9679 52.4408 27.1896 52.2191 27.1896 51.9456V51.6411H30.3862V51.9456C30.3862 52.2191 30.6079 52.4408 30.8814 52.4408H32.1503C32.4238 52.4408 32.6455 52.2191 32.6455 51.9456V51.6411H32.8214C33.5852 51.6411 34.2043 51.022 34.2043 50.2582V44.011C34.2043 43.2472 33.5852 42.5835 32.8214 42.5835H31.0299C31.0365 42.5034 31.0329 42.0728 31.0339 41.4988C31.0339 41.0736 30.7572 40.7124 30.3745 40.5842C30.3954 40.3641 30.3712 40.1365 30.2916 39.9147L28.4016 34.6488L30.8526 32.2554L29.432 34.473L31.2604 39.567C31.3031 39.6857 31.336 39.8056 31.3605 39.9258C31.8182 39.2597 32.6484 38.901 33.4866 39.0844C34.4764 39.3011 35.131 39.4443 36.8423 39.8188C37.1701 38.0726 37.1525 38.0184 37.2536 37.7161C37.4788 37.0423 37.9702 36.5108 38.5856 36.2459C38.0076 35.8751 37.5341 35.3565 37.2184 34.7374ZM29.3559 41.8982C29.5869 41.8153 29.7849 41.682 29.9448 41.5166H30.051V42.5834H27.5498V41.5166H27.7181C28.1342 41.946 28.7696 42.1086 29.3559 41.8982Z" fill="#FE5B3E"/>
</g>
<defs>
<clipPath id="clip0_83_122">
<rect width="40" height="40" fill="white" transform="translate(20 20)"/>
</clipPath>
</defs>
</svg>
