<svg width="81" height="80" viewBox="0 0 81 80" fill="none" xmlns="http://www.w3.org/2000/svg">
<rect x="0.750244" width="80" height="80" rx="20" fill="#FE5B3E" fill-opacity="0.1"/>
<path d="M43.3438 48.2812C40.113 48.2812 37.4844 50.9099 37.4844 54.1406C37.4844 57.3713 40.113 60 43.3438 60C46.5745 60 49.2031 57.3713 49.2031 54.1406C49.2031 50.9099 46.5745 48.2812 43.3438 48.2812ZM44.5156 55.3125H42.1719V52.9688H44.5156V55.3125Z" fill="#FE5B3E"/>
<path d="M49.2032 20H39.8282C35.6909 20 31.9663 22.5266 30.2307 26.2265C31.6465 25.3672 33.3671 24.8438 35.1407 24.8438H53.8907C55.6644 24.8438 57.3849 25.3672 58.8008 26.2265C57.0652 22.5266 53.3406 20 49.2032 20Z" fill="#FE5B3E"/>
<path d="M53.8906 27.1875H35.1406C31.2634 27.1875 28.0312 30.3415 28.0312 34.2188C28.0312 38.096 31.2634 41.25 35.1406 41.25H37.4844C39.9655 41.25 42.2165 39.9523 43.5085 37.7779L44.5156 36.0807L45.5227 37.7779C46.8148 39.9523 49.0658 41.25 51.5469 41.25H53.8906C57.7679 41.25 61 38.096 61 34.2188C61 30.3415 57.7679 27.1875 53.8906 27.1875Z" fill="#FE5B3E"/>
<path d="M44.5156 40.3745C43.2396 41.8491 41.5589 42.854 39.6954 43.3089C40.7688 44.9124 42.5322 45.9375 44.5156 45.9375C46.4989 45.9375 48.2622 44.9124 49.3358 43.3089C47.472 42.854 45.7909 41.849 44.5156 40.3745Z" fill="#FE5B3E"/>
<path d="M35.5231 51.7969H33.9688C29.4383 51.7969 25.6875 48.1242 25.6875 43.5938V41.25H21V43.5938C21 50.713 26.8495 56.4844 33.9688 56.4844H35.5231C35.2981 55.7368 35.1406 54.9605 35.1406 54.1406C35.1406 53.3208 35.2981 52.5445 35.5231 51.7969Z" fill="#FE5B3E"/>
<path d="M25.6875 36.5625H21V38.9062H25.6875V36.5625Z" fill="#FE5B3E"/>
<path d="M25.6875 20H21V34.2188H25.6875V20Z" fill="#FE5B3E"/>
</svg>
